<mxfile host="app.diagrams.net" agent="Mozilla/5.0 (Windows NT 10.0; Win64; x64) AppleWebKit/537.36 (KHTML, like Gecko) Chrome/132.0.0.0 Safari/537.36" version="26.0.14">
  <diagram name="Page-1" id="yO-QykbQlEKRBg8FvEm-">
    <mxGraphModel dx="1588" dy="824" grid="1" gridSize="10" guides="1" tooltips="1" connect="1" arrows="1" fold="1" page="1" pageScale="1" pageWidth="850" pageHeight="1100" math="0" shadow="0">
      <root>
        <mxCell id="0" />
        <mxCell id="1" parent="0" />
        <mxCell id="N0HYQU6aYldLoChQpqE3-3" value="Customer&amp;nbsp;" style="shape=umlActor;verticalLabelPosition=bottom;verticalAlign=top;html=1;" vertex="1" parent="1">
          <mxGeometry x="70" y="770" width="30" height="60" as="geometry" />
        </mxCell>
        <mxCell id="N0HYQU6aYldLoChQpqE3-4" value="Access sale detail and browse products" style="ellipse;whiteSpace=wrap;html=1;" vertex="1" parent="1">
          <mxGeometry x="210" y="765" width="140" height="70" as="geometry" />
        </mxCell>
        <mxCell id="N0HYQU6aYldLoChQpqE3-10" value="See advertisement on Website" style="ellipse;whiteSpace=wrap;html=1;" vertex="1" parent="1">
          <mxGeometry x="210" y="620" width="140" height="70" as="geometry" />
        </mxCell>
        <mxCell id="N0HYQU6aYldLoChQpqE3-21" value="" style="endArrow=open;endFill=1;endSize=12;html=1;rounded=0;" edge="1" parent="1">
          <mxGeometry width="160" relative="1" as="geometry">
            <mxPoint x="100" y="799.5" as="sourcePoint" />
            <mxPoint x="210" y="800" as="targetPoint" />
            <Array as="points" />
          </mxGeometry>
        </mxCell>
        <mxCell id="N0HYQU6aYldLoChQpqE3-22" value="" style="endArrow=open;endFill=1;endSize=12;html=1;rounded=0;entryX=0.5;entryY=1;entryDx=0;entryDy=0;" edge="1" parent="1" target="N0HYQU6aYldLoChQpqE3-10">
          <mxGeometry width="160" relative="1" as="geometry">
            <mxPoint x="110" y="780" as="sourcePoint" />
            <mxPoint x="260" y="760" as="targetPoint" />
          </mxGeometry>
        </mxCell>
        <mxCell id="N0HYQU6aYldLoChQpqE3-24" value="Login with credentials" style="ellipse;whiteSpace=wrap;html=1;" vertex="1" parent="1">
          <mxGeometry x="210" y="870" width="140" height="70" as="geometry" />
        </mxCell>
        <mxCell id="N0HYQU6aYldLoChQpqE3-27" value="Add order to cart&amp;nbsp;" style="ellipse;whiteSpace=wrap;html=1;" vertex="1" parent="1">
          <mxGeometry x="210" y="990" width="140" height="70" as="geometry" />
        </mxCell>
        <mxCell id="N0HYQU6aYldLoChQpqE3-35" value="" style="endArrow=open;endFill=1;endSize=12;html=1;rounded=0;exitX=0.5;exitY=1;exitDx=0;exitDy=0;entryX=0.5;entryY=0;entryDx=0;entryDy=0;" edge="1" parent="1" source="N0HYQU6aYldLoChQpqE3-4" target="N0HYQU6aYldLoChQpqE3-24">
          <mxGeometry width="160" relative="1" as="geometry">
            <mxPoint x="340" y="950" as="sourcePoint" />
            <mxPoint x="500" y="950" as="targetPoint" />
            <Array as="points" />
          </mxGeometry>
        </mxCell>
        <mxCell id="N0HYQU6aYldLoChQpqE3-38" value="Bake Sale&amp;nbsp;&lt;div&gt;Management user&lt;/div&gt;" style="shape=umlActor;verticalLabelPosition=bottom;verticalAlign=top;html=1;" vertex="1" parent="1">
          <mxGeometry x="780" y="260" width="30" height="60" as="geometry" />
        </mxCell>
        <mxCell id="N0HYQU6aYldLoChQpqE3-40" value="View available dates" style="ellipse;whiteSpace=wrap;html=1;" vertex="1" parent="1">
          <mxGeometry x="460" y="50" width="140" height="70" as="geometry" />
        </mxCell>
        <mxCell id="N0HYQU6aYldLoChQpqE3-41" value="View schedule and registered sellers" style="ellipse;whiteSpace=wrap;html=1;" vertex="1" parent="1">
          <mxGeometry x="460" y="130" width="140" height="70" as="geometry" />
        </mxCell>
        <mxCell id="N0HYQU6aYldLoChQpqE3-42" value="Check Available tables&amp;nbsp;" style="ellipse;whiteSpace=wrap;html=1;" vertex="1" parent="1">
          <mxGeometry x="530" y="370" width="140" height="70" as="geometry" />
        </mxCell>
        <mxCell id="N0HYQU6aYldLoChQpqE3-43" value="Payments" style="ellipse;whiteSpace=wrap;html=1;" vertex="1" parent="1">
          <mxGeometry x="330" y="220" width="140" height="70" as="geometry" />
        </mxCell>
        <mxCell id="N0HYQU6aYldLoChQpqE3-45" value="" style="endArrow=open;endFill=1;endSize=12;html=1;rounded=0;entryX=1;entryY=0.5;entryDx=0;entryDy=0;exitX=0.25;exitY=0.1;exitDx=0;exitDy=0;exitPerimeter=0;" edge="1" parent="1" source="N0HYQU6aYldLoChQpqE3-38" target="N0HYQU6aYldLoChQpqE3-40">
          <mxGeometry width="160" relative="1" as="geometry">
            <mxPoint x="770" y="300" as="sourcePoint" />
            <mxPoint x="500" y="260" as="targetPoint" />
          </mxGeometry>
        </mxCell>
        <mxCell id="N0HYQU6aYldLoChQpqE3-46" value="" style="endArrow=open;endFill=1;endSize=12;html=1;rounded=0;entryX=1;entryY=0.5;entryDx=0;entryDy=0;" edge="1" parent="1" target="N0HYQU6aYldLoChQpqE3-41">
          <mxGeometry width="160" relative="1" as="geometry">
            <mxPoint x="770" y="290" as="sourcePoint" />
            <mxPoint x="500" y="260" as="targetPoint" />
          </mxGeometry>
        </mxCell>
        <mxCell id="N0HYQU6aYldLoChQpqE3-47" value="" style="endArrow=open;endFill=1;endSize=12;html=1;rounded=0;entryX=0.5;entryY=0;entryDx=0;entryDy=0;" edge="1" parent="1" target="N0HYQU6aYldLoChQpqE3-42">
          <mxGeometry width="160" relative="1" as="geometry">
            <mxPoint x="740" y="330" as="sourcePoint" />
            <mxPoint x="500" y="260" as="targetPoint" />
          </mxGeometry>
        </mxCell>
        <mxCell id="N0HYQU6aYldLoChQpqE3-52" value="Assign tables" style="ellipse;whiteSpace=wrap;html=1;" vertex="1" parent="1">
          <mxGeometry x="530" y="515" width="140" height="70" as="geometry" />
        </mxCell>
        <mxCell id="N0HYQU6aYldLoChQpqE3-56" value="" style="endArrow=open;endFill=1;endSize=12;html=1;rounded=0;exitX=0.5;exitY=1;exitDx=0;exitDy=0;entryX=0.5;entryY=0;entryDx=0;entryDy=0;" edge="1" parent="1" source="N0HYQU6aYldLoChQpqE3-42" target="N0HYQU6aYldLoChQpqE3-52">
          <mxGeometry width="160" relative="1" as="geometry">
            <mxPoint x="340" y="350" as="sourcePoint" />
            <mxPoint x="500" y="350" as="targetPoint" />
          </mxGeometry>
        </mxCell>
        <mxCell id="N0HYQU6aYldLoChQpqE3-57" value="" style="endArrow=open;endFill=1;endSize=12;html=1;rounded=0;exitX=0.5;exitY=1;exitDx=0;exitDy=0;entryX=0.5;entryY=0;entryDx=0;entryDy=0;" edge="1" parent="1" source="N0HYQU6aYldLoChQpqE3-24" target="N0HYQU6aYldLoChQpqE3-27">
          <mxGeometry width="160" relative="1" as="geometry">
            <mxPoint x="350" y="880" as="sourcePoint" />
            <mxPoint x="510" y="880" as="targetPoint" />
          </mxGeometry>
        </mxCell>
        <mxCell id="N0HYQU6aYldLoChQpqE3-58" value="Bakers/Sellers" style="shape=umlActor;verticalLabelPosition=bottom;verticalAlign=top;html=1;" vertex="1" parent="1">
          <mxGeometry x="80" y="270" width="30" height="70" as="geometry" />
        </mxCell>
        <mxCell id="N0HYQU6aYldLoChQpqE3-59" value="Login for the upcoming&amp;nbsp; bake sale" style="ellipse;whiteSpace=wrap;html=1;" vertex="1" parent="1">
          <mxGeometry x="235" y="100" width="140" height="70" as="geometry" />
        </mxCell>
        <mxCell id="N0HYQU6aYldLoChQpqE3-60" value="Accept payments&amp;nbsp;&lt;div&gt;cash/check or online&lt;/div&gt;" style="ellipse;whiteSpace=wrap;html=1;" vertex="1" parent="1">
          <mxGeometry x="530" y="230" width="140" height="70" as="geometry" />
        </mxCell>
        <mxCell id="N0HYQU6aYldLoChQpqE3-62" value="Pay fee cash/check or online" style="ellipse;whiteSpace=wrap;html=1;" vertex="1" parent="1">
          <mxGeometry x="210" y="340" width="140" height="70" as="geometry" />
        </mxCell>
        <mxCell id="N0HYQU6aYldLoChQpqE3-63" value="" style="endArrow=open;endFill=1;endSize=12;html=1;rounded=0;entryX=0;entryY=0.5;entryDx=0;entryDy=0;" edge="1" parent="1" target="N0HYQU6aYldLoChQpqE3-59">
          <mxGeometry width="160" relative="1" as="geometry">
            <mxPoint x="120" y="300" as="sourcePoint" />
            <mxPoint x="550" y="360" as="targetPoint" />
          </mxGeometry>
        </mxCell>
        <mxCell id="N0HYQU6aYldLoChQpqE3-65" value="" style="endArrow=open;endFill=1;endSize=12;html=1;rounded=0;entryX=0;entryY=0.5;entryDx=0;entryDy=0;exitX=1;exitY=0.5;exitDx=0;exitDy=0;" edge="1" parent="1" source="N0HYQU6aYldLoChQpqE3-43" target="N0HYQU6aYldLoChQpqE3-60">
          <mxGeometry width="160" relative="1" as="geometry">
            <mxPoint x="450" y="310" as="sourcePoint" />
            <mxPoint x="300" y="360" as="targetPoint" />
            <Array as="points" />
          </mxGeometry>
        </mxCell>
        <mxCell id="N0HYQU6aYldLoChQpqE3-67" value="" style="endArrow=open;endFill=1;endSize=12;html=1;rounded=0;exitX=1;exitY=0.5;exitDx=0;exitDy=0;" edge="1" parent="1" source="N0HYQU6aYldLoChQpqE3-60">
          <mxGeometry width="160" relative="1" as="geometry">
            <mxPoint x="390" y="360" as="sourcePoint" />
            <mxPoint x="750" y="300" as="targetPoint" />
          </mxGeometry>
        </mxCell>
        <mxCell id="N0HYQU6aYldLoChQpqE3-68" value="" style="endArrow=open;endFill=1;endSize=12;html=1;rounded=0;entryX=0;entryY=0.5;entryDx=0;entryDy=0;exitX=0.5;exitY=0;exitDx=0;exitDy=0;" edge="1" parent="1" source="N0HYQU6aYldLoChQpqE3-62" target="N0HYQU6aYldLoChQpqE3-43">
          <mxGeometry width="160" relative="1" as="geometry">
            <mxPoint x="390" y="360" as="sourcePoint" />
            <mxPoint x="550" y="360" as="targetPoint" />
          </mxGeometry>
        </mxCell>
        <mxCell id="N0HYQU6aYldLoChQpqE3-70" value="" style="endArrow=open;endFill=1;endSize=12;html=1;rounded=0;entryX=0;entryY=0.5;entryDx=0;entryDy=0;" edge="1" parent="1" target="N0HYQU6aYldLoChQpqE3-62">
          <mxGeometry width="160" relative="1" as="geometry">
            <mxPoint x="120" y="310" as="sourcePoint" />
            <mxPoint x="550" y="360" as="targetPoint" />
          </mxGeometry>
        </mxCell>
        <mxCell id="N0HYQU6aYldLoChQpqE3-71" value="List of the items for the sale including description and photos" style="ellipse;whiteSpace=wrap;html=1;" vertex="1" parent="1">
          <mxGeometry x="235" y="420" width="190" height="120" as="geometry" />
        </mxCell>
        <mxCell id="N0HYQU6aYldLoChQpqE3-72" value="" style="endArrow=open;endFill=1;endSize=12;html=1;rounded=0;entryX=0;entryY=0.5;entryDx=0;entryDy=0;" edge="1" parent="1" target="N0HYQU6aYldLoChQpqE3-71">
          <mxGeometry width="160" relative="1" as="geometry">
            <mxPoint x="140" y="350" as="sourcePoint" />
            <mxPoint x="550" y="360" as="targetPoint" />
          </mxGeometry>
        </mxCell>
        <mxCell id="N0HYQU6aYldLoChQpqE3-74" value="" style="endArrow=open;endFill=1;endSize=12;html=1;rounded=0;exitX=0.5;exitY=0;exitDx=0;exitDy=0;entryX=0;entryY=0.5;entryDx=0;entryDy=0;" edge="1" parent="1" source="N0HYQU6aYldLoChQpqE3-59" target="N0HYQU6aYldLoChQpqE3-40">
          <mxGeometry width="160" relative="1" as="geometry">
            <mxPoint x="390" y="360" as="sourcePoint" />
            <mxPoint x="550" y="360" as="targetPoint" />
          </mxGeometry>
        </mxCell>
        <mxCell id="N0HYQU6aYldLoChQpqE3-75" value="Create fliers and advertisement&amp;nbsp;" style="ellipse;whiteSpace=wrap;html=1;" vertex="1" parent="1">
          <mxGeometry x="80" y="490" width="140" height="70" as="geometry" />
        </mxCell>
        <mxCell id="N0HYQU6aYldLoChQpqE3-76" value="" style="endArrow=open;endFill=1;endSize=12;html=1;rounded=0;entryX=0;entryY=0;entryDx=0;entryDy=0;" edge="1" parent="1" target="N0HYQU6aYldLoChQpqE3-75">
          <mxGeometry width="160" relative="1" as="geometry">
            <mxPoint x="90" y="370" as="sourcePoint" />
            <mxPoint x="550" y="360" as="targetPoint" />
          </mxGeometry>
        </mxCell>
        <mxCell id="N0HYQU6aYldLoChQpqE3-77" value="" style="endArrow=open;endFill=1;endSize=12;html=1;rounded=0;exitX=0.5;exitY=1;exitDx=0;exitDy=0;entryX=0.5;entryY=0;entryDx=0;entryDy=0;" edge="1" parent="1" source="N0HYQU6aYldLoChQpqE3-75" target="N0HYQU6aYldLoChQpqE3-10">
          <mxGeometry width="160" relative="1" as="geometry">
            <mxPoint x="390" y="360" as="sourcePoint" />
            <mxPoint x="550" y="360" as="targetPoint" />
          </mxGeometry>
        </mxCell>
      </root>
    </mxGraphModel>
  </diagram>
</mxfile>
